# xmcd
#
# Track frame offsets: 
#        150
#        7441
#        18292
#        30953
#        45887
#        55766
#        65502
#        80212
#        95042
#        107550
#        120695
#        132004
#        145956
#        158819
#        170737
#        184765
#        198821
#        211964
#        224786
#        240331
#        252829
#        264538
#
# Disc length: 3770 seconds
#
# Revision: 0
# Processed by: cddbd v1.5.1PL0 Copyright (c) Steve Scherf et al.
# Submitted via: ExactAudioCopy v0.95a5
#
DISCID=380eb816
DTITLE=Anne Murray - Now And Forever - CD1
DYEAR=1994
DGENRE=Country
TTITLE0=Little Bit Of Soap
TTITLE1=Last Thing On My Mind
TTITLE2=What About Me
TTITLE3=Just Bidin' My Time
TTITLE4=Snowbird
TTITLE5=Rain
TTITLE6=Put Your Hand In The Hand
TTITLE7=It Takes Time
TTITLE8=Sing High, Sing Low
TTITLE9=A Stranger In My Place
TTITLE10=Talk It Over In The Morning
TTITLE11=Cotton Jenny
TTITLE12=Canadian Sunset
TTITLE13=Robbie's Song For Jesus
TTITLE14=Drown Me
TTITLE15=Danny's Song
TTITLE16=He Thinks I Still Care
TTITLE17=A Love Song
TTITLE18=Another Pot O' Tea
TTITLE19=Please Don't Sell Nova Scotia
TTITLE20=The Call
TTITLE21=You Won't See Me
EXTD=
EXTT0=
EXTT1=
EXTT2=
EXTT3=
EXTT4=
EXTT5=
EXTT6=
EXTT7=
EXTT8=
EXTT9=
EXTT10=
EXTT11=
EXTT12=
EXTT13=
EXTT14=
EXTT15=
EXTT16=
EXTT17=
EXTT18=
EXTT19=
EXTT20=
EXTT21=
PLAYORDER=
